<svg width="367" height="105" viewBox="0 0 367 105" fill="none" xmlns="http://www.w3.org/2000/svg">
<g opacity="0.28">
<path d="M13.3379 75.2044C29.7152 90.1228 50.2504 97.3813 72.3514 97.9925C100.158 98.7598 126.872 88.9942 150.856 75.5926C174.902 62.1553 196.593 45.024 219.631 30.0119C238.752 17.5516 258.448 7.56289 280.179 0.549805C258.502 3.89128 238.595 10.7215 219.118 20.844C195.647 33.0411 173.961 48.2852 151.231 61.7493C128.238 75.3695 103.174 87.1829 76.2594 89.7526C53.7523 91.8984 32.3741 87.3881 13.3379 75.2044Z" fill="#6BB5B5"/>
<path d="M0 34.1176C8.71729 45.3555 19.0361 54.4609 32.3083 59.9795C49.4262 67.0997 68.0698 67.5012 85.888 62.8213C113.485 55.5718 139.276 38.9714 162.787 23.2188C137.581 31.0973 113.641 42.6877 88.2614 49.9551C71.6387 54.7152 54.6325 56.6291 37.6172 52.7924C23.5197 49.616 11.4074 42.768 0 34.1176Z" fill="#6BB5B5"/>
<path d="M135.162 105C145.303 104.527 155.028 103.608 164.785 100.61C177.829 96.6037 190.227 90.5051 201.876 83.443C226.627 68.4309 248.621 49.1806 274.246 35.5782C286.791 28.9176 300.161 23.622 314.33 21.7706C326.327 20.2047 341.125 21.6993 349.793 31.117C357.935 39.9636 359.287 53.7533 353.103 64.0455C346.831 75.0112 331.31 79.8071 319.671 75.7072C310.797 72.5799 303.356 63.7109 306.229 53.8872C308.834 44.9691 319.532 41.7704 326.635 47.6682C319.104 39.5086 306.456 43.8583 302.981 53.682C298.921 65.1652 306.916 76.3674 317.052 81.141C329.178 86.8514 343.94 83.9873 354.236 75.8946C364.457 67.8643 368.74 53.9809 366.358 41.4135C360.741 11.7551 328.557 6.54884 303.592 11.7863C276.044 17.5637 252.44 35.0161 230.865 52.1919C214.822 64.96 199.02 78.2278 181.242 88.5601C166.525 97.1033 151.829 102.06 135.162 105Z" fill="#6BB5B5"/>
</g>
</svg>
